<mxfile host="www.draw.io" modified="2020-01-13T17:53:24.040Z" agent="Mozilla/5.0 (X11; Linux x86_64) AppleWebKit/537.36 (KHTML, like Gecko) Chrome/79.0.3945.88 Safari/537.36" etag="imxZxIns8waxzS5aWH1K" version="12.5.1" type="github">
  <diagram id="C5RBs43oDa-KdzZeNtuy" name="Page-1">
    <mxGraphModel dx="1929" dy="629" grid="1" gridSize="10" guides="1" tooltips="1" connect="1" arrows="1" fold="1" page="1" pageScale="1" pageWidth="827" pageHeight="1169" math="0" shadow="0">
      <root>
        <mxCell id="WIyWlLk6GJQsqaUBKTNV-0"/>
        <mxCell id="WIyWlLk6GJQsqaUBKTNV-1" parent="WIyWlLk6GJQsqaUBKTNV-0"/>
        <mxCell id="DztWzcjORbF4qtPKrbao-0" value="sumMinMax" style="rounded=1;whiteSpace=wrap;html=1;" parent="WIyWlLk6GJQsqaUBKTNV-1" vertex="1">
          <mxGeometry x="510" y="20" width="120" height="60" as="geometry"/>
        </mxCell>
        <mxCell id="DztWzcjORbF4qtPKrbao-1" value="maxValue" style="rounded=1;whiteSpace=wrap;html=1;" parent="WIyWlLk6GJQsqaUBKTNV-1" vertex="1">
          <mxGeometry x="440" y="190" width="120" height="60" as="geometry"/>
        </mxCell>
        <mxCell id="DztWzcjORbF4qtPKrbao-2" value="minValueIndex" style="rounded=1;whiteSpace=wrap;html=1;" parent="WIyWlLk6GJQsqaUBKTNV-1" vertex="1">
          <mxGeometry x="630" y="330" width="120" height="60" as="geometry"/>
        </mxCell>
        <mxCell id="DztWzcjORbF4qtPKrbao-3" value="maxValueIndex" style="rounded=1;whiteSpace=wrap;html=1;" parent="WIyWlLk6GJQsqaUBKTNV-1" vertex="1">
          <mxGeometry x="440" y="330" width="120" height="60" as="geometry"/>
        </mxCell>
        <mxCell id="DztWzcjORbF4qtPKrbao-4" value="printArr" style="rounded=1;whiteSpace=wrap;html=1;" parent="WIyWlLk6GJQsqaUBKTNV-1" vertex="1">
          <mxGeometry x="-79.99999999999999" y="190" width="120" height="60" as="geometry"/>
        </mxCell>
        <mxCell id="DztWzcjORbF4qtPKrbao-5" value="printSorted" style="rounded=1;whiteSpace=wrap;html=1;" parent="WIyWlLk6GJQsqaUBKTNV-1" vertex="1">
          <mxGeometry x="130" y="20" width="120" height="60" as="geometry"/>
        </mxCell>
        <mxCell id="DztWzcjORbF4qtPKrbao-6" value="swapMinMax" style="rounded=1;whiteSpace=wrap;html=1;" parent="WIyWlLk6GJQsqaUBKTNV-1" vertex="1">
          <mxGeometry x="320" y="20" width="120" height="60" as="geometry"/>
        </mxCell>
        <mxCell id="DztWzcjORbF4qtPKrbao-7" value="merge" style="rounded=1;whiteSpace=wrap;html=1;" parent="WIyWlLk6GJQsqaUBKTNV-1" vertex="1">
          <mxGeometry x="-60" y="20" width="120" height="60" as="geometry"/>
        </mxCell>
        <mxCell id="DztWzcjORbF4qtPKrbao-8" value="isSorted" style="rounded=1;whiteSpace=wrap;html=1;" parent="WIyWlLk6GJQsqaUBKTNV-1" vertex="1">
          <mxGeometry x="-250" y="20" width="120" height="60" as="geometry"/>
        </mxCell>
        <mxCell id="DztWzcjORbF4qtPKrbao-9" value="sortArray" style="rounded=1;whiteSpace=wrap;html=1;" parent="WIyWlLk6GJQsqaUBKTNV-1" vertex="1">
          <mxGeometry x="130" y="190" width="120" height="60" as="geometry"/>
        </mxCell>
        <mxCell id="DztWzcjORbF4qtPKrbao-11" value="equalArrays" style="rounded=1;whiteSpace=wrap;html=1;" parent="WIyWlLk6GJQsqaUBKTNV-1" vertex="1">
          <mxGeometry x="-280" y="190" width="120" height="60" as="geometry"/>
        </mxCell>
        <mxCell id="DztWzcjORbF4qtPKrbao-12" value="size" style="rounded=1;whiteSpace=wrap;html=1;" parent="WIyWlLk6GJQsqaUBKTNV-1" vertex="1">
          <mxGeometry x="-60" y="450" width="120" height="60" as="geometry"/>
        </mxCell>
        <mxCell id="DztWzcjORbF4qtPKrbao-13" value="copyArr" style="rounded=1;whiteSpace=wrap;html=1;" parent="WIyWlLk6GJQsqaUBKTNV-1" vertex="1">
          <mxGeometry x="250" y="330" width="120" height="60" as="geometry"/>
        </mxCell>
        <mxCell id="DztWzcjORbF4qtPKrbao-16" value="minValue" style="rounded=1;whiteSpace=wrap;html=1;" parent="WIyWlLk6GJQsqaUBKTNV-1" vertex="1">
          <mxGeometry x="630" y="190" width="120" height="60" as="geometry"/>
        </mxCell>
        <mxCell id="DztWzcjORbF4qtPKrbao-19" value="" style="endArrow=classic;html=1;exitX=0.25;exitY=1;exitDx=0;exitDy=0;entryX=0.808;entryY=0;entryDx=0;entryDy=0;entryPerimeter=0;" parent="WIyWlLk6GJQsqaUBKTNV-1" source="DztWzcjORbF4qtPKrbao-0" target="DztWzcjORbF4qtPKrbao-1" edge="1">
          <mxGeometry width="50" height="50" relative="1" as="geometry">
            <mxPoint x="10" y="610" as="sourcePoint"/>
            <mxPoint x="60" y="560" as="targetPoint"/>
          </mxGeometry>
        </mxCell>
        <mxCell id="DztWzcjORbF4qtPKrbao-20" value="" style="endArrow=classic;html=1;exitX=0.75;exitY=1;exitDx=0;exitDy=0;entryX=0.5;entryY=0;entryDx=0;entryDy=0;" parent="WIyWlLk6GJQsqaUBKTNV-1" source="DztWzcjORbF4qtPKrbao-0" target="DztWzcjORbF4qtPKrbao-16" edge="1">
          <mxGeometry width="50" height="50" relative="1" as="geometry">
            <mxPoint x="600" y="70" as="sourcePoint"/>
            <mxPoint x="546.96" y="110" as="targetPoint"/>
            <Array as="points">
              <mxPoint x="600" y="100"/>
              <mxPoint x="690" y="100"/>
            </Array>
          </mxGeometry>
        </mxCell>
        <mxCell id="DztWzcjORbF4qtPKrbao-21" value="" style="endArrow=classic;html=1;exitX=0.5;exitY=1;exitDx=0;exitDy=0;" parent="WIyWlLk6GJQsqaUBKTNV-1" source="DztWzcjORbF4qtPKrbao-1" target="DztWzcjORbF4qtPKrbao-3" edge="1">
          <mxGeometry width="50" height="50" relative="1" as="geometry">
            <mxPoint x="610" y="80" as="sourcePoint"/>
            <mxPoint x="556.96" y="120" as="targetPoint"/>
          </mxGeometry>
        </mxCell>
        <mxCell id="DztWzcjORbF4qtPKrbao-22" value="" style="endArrow=classic;html=1;exitX=0.5;exitY=1;exitDx=0;exitDy=0;entryX=0.5;entryY=0;entryDx=0;entryDy=0;" parent="WIyWlLk6GJQsqaUBKTNV-1" source="DztWzcjORbF4qtPKrbao-16" target="DztWzcjORbF4qtPKrbao-2" edge="1">
          <mxGeometry width="50" height="50" relative="1" as="geometry">
            <mxPoint x="620" y="90" as="sourcePoint"/>
            <mxPoint x="720" y="211" as="targetPoint"/>
          </mxGeometry>
        </mxCell>
        <mxCell id="DztWzcjORbF4qtPKrbao-23" value="" style="endArrow=classic;html=1;exitX=0;exitY=0.5;exitDx=0;exitDy=0;entryX=0.75;entryY=0;entryDx=0;entryDy=0;" parent="WIyWlLk6GJQsqaUBKTNV-1" source="DztWzcjORbF4qtPKrbao-13" target="DztWzcjORbF4qtPKrbao-12" edge="1">
          <mxGeometry width="50" height="50" relative="1" as="geometry">
            <mxPoint x="630" y="100" as="sourcePoint"/>
            <mxPoint x="576.96" y="140" as="targetPoint"/>
            <Array as="points">
              <mxPoint x="30" y="360"/>
            </Array>
          </mxGeometry>
        </mxCell>
        <mxCell id="DztWzcjORbF4qtPKrbao-24" value="" style="endArrow=classic;html=1;exitX=0.25;exitY=1;exitDx=0;exitDy=0;entryX=0.5;entryY=0;entryDx=0;entryDy=0;" parent="WIyWlLk6GJQsqaUBKTNV-1" source="DztWzcjORbF4qtPKrbao-6" target="DztWzcjORbF4qtPKrbao-13" edge="1">
          <mxGeometry width="50" height="50" relative="1" as="geometry">
            <mxPoint x="640" y="110" as="sourcePoint"/>
            <mxPoint x="586.96" y="150" as="targetPoint"/>
            <Array as="points">
              <mxPoint x="350" y="150"/>
              <mxPoint x="310" y="150"/>
            </Array>
          </mxGeometry>
        </mxCell>
        <mxCell id="DztWzcjORbF4qtPKrbao-25" value="" style="endArrow=classic;html=1;exitX=0.75;exitY=1;exitDx=0;exitDy=0;entryX=0.25;entryY=0;entryDx=0;entryDy=0;" parent="WIyWlLk6GJQsqaUBKTNV-1" source="DztWzcjORbF4qtPKrbao-9" target="DztWzcjORbF4qtPKrbao-13" edge="1">
          <mxGeometry width="50" height="50" relative="1" as="geometry">
            <mxPoint x="650" y="120" as="sourcePoint"/>
            <mxPoint x="300" y="370" as="targetPoint"/>
            <Array as="points">
              <mxPoint x="220" y="280"/>
              <mxPoint x="280" y="280"/>
            </Array>
          </mxGeometry>
        </mxCell>
        <mxCell id="DztWzcjORbF4qtPKrbao-26" value="" style="endArrow=classic;html=1;exitX=0.5;exitY=1;exitDx=0;exitDy=0;entryX=0.5;entryY=0;entryDx=0;entryDy=0;" parent="WIyWlLk6GJQsqaUBKTNV-1" source="DztWzcjORbF4qtPKrbao-7" target="DztWzcjORbF4qtPKrbao-9" edge="1">
          <mxGeometry width="50" height="50" relative="1" as="geometry">
            <mxPoint x="660" y="130" as="sourcePoint"/>
            <mxPoint x="606.96" y="170" as="targetPoint"/>
            <Array as="points">
              <mxPoint y="100"/>
              <mxPoint x="140" y="100"/>
              <mxPoint x="160" y="90"/>
              <mxPoint x="180" y="100"/>
              <mxPoint x="190" y="100"/>
            </Array>
          </mxGeometry>
        </mxCell>
        <mxCell id="DztWzcjORbF4qtPKrbao-27" value="" style="endArrow=classic;html=1;entryX=0.25;entryY=0;entryDx=0;entryDy=0;exitX=0.75;exitY=1;exitDx=0;exitDy=0;" parent="WIyWlLk6GJQsqaUBKTNV-1" source="DztWzcjORbF4qtPKrbao-8" target="DztWzcjORbF4qtPKrbao-9" edge="1">
          <mxGeometry width="50" height="50" relative="1" as="geometry">
            <mxPoint x="-100" y="100" as="sourcePoint"/>
            <mxPoint x="616.96" y="180" as="targetPoint"/>
            <Array as="points">
              <mxPoint x="-160" y="160"/>
              <mxPoint x="-10" y="160"/>
              <mxPoint x="10" y="150"/>
              <mxPoint x="30" y="160"/>
              <mxPoint x="160" y="160"/>
            </Array>
          </mxGeometry>
        </mxCell>
        <mxCell id="DztWzcjORbF4qtPKrbao-28" value="" style="endArrow=classic;html=1;exitX=0.75;exitY=1;exitDx=0;exitDy=0;entryX=0.25;entryY=0;entryDx=0;entryDy=0;" parent="WIyWlLk6GJQsqaUBKTNV-1" source="DztWzcjORbF4qtPKrbao-6" target="DztWzcjORbF4qtPKrbao-1" edge="1">
          <mxGeometry width="50" height="50" relative="1" as="geometry">
            <mxPoint x="680" y="150" as="sourcePoint"/>
            <mxPoint x="626.96" y="190" as="targetPoint"/>
            <Array as="points">
              <mxPoint x="410" y="150"/>
              <mxPoint x="470" y="150"/>
            </Array>
          </mxGeometry>
        </mxCell>
        <mxCell id="DztWzcjORbF4qtPKrbao-29" value="" style="endArrow=classic;html=1;exitX=0.25;exitY=1;exitDx=0;exitDy=0;entryX=0.5;entryY=0;entryDx=0;entryDy=0;" parent="WIyWlLk6GJQsqaUBKTNV-1" source="DztWzcjORbF4qtPKrbao-8" target="DztWzcjORbF4qtPKrbao-11" edge="1">
          <mxGeometry width="50" height="50" relative="1" as="geometry">
            <mxPoint x="690" y="160" as="sourcePoint"/>
            <mxPoint x="636.96" y="200" as="targetPoint"/>
          </mxGeometry>
        </mxCell>
        <mxCell id="DztWzcjORbF4qtPKrbao-30" value="" style="endArrow=classic;html=1;exitX=0.5;exitY=1;exitDx=0;exitDy=0;entryX=0.25;entryY=0;entryDx=0;entryDy=0;" parent="WIyWlLk6GJQsqaUBKTNV-1" source="DztWzcjORbF4qtPKrbao-11" target="DztWzcjORbF4qtPKrbao-12" edge="1">
          <mxGeometry width="50" height="50" relative="1" as="geometry">
            <mxPoint x="700" y="170" as="sourcePoint"/>
            <mxPoint x="646.96" y="210" as="targetPoint"/>
            <Array as="points">
              <mxPoint x="-220" y="360"/>
              <mxPoint x="-30" y="360"/>
            </Array>
          </mxGeometry>
        </mxCell>
        <mxCell id="DztWzcjORbF4qtPKrbao-31" value="" style="endArrow=classic;html=1;exitX=0.75;exitY=1;exitDx=0;exitDy=0;entryX=0.75;entryY=0;entryDx=0;entryDy=0;" parent="WIyWlLk6GJQsqaUBKTNV-1" source="DztWzcjORbF4qtPKrbao-5" target="DztWzcjORbF4qtPKrbao-9" edge="1">
          <mxGeometry width="50" height="50" relative="1" as="geometry">
            <mxPoint x="710" y="180" as="sourcePoint"/>
            <mxPoint x="656.96" y="220" as="targetPoint"/>
          </mxGeometry>
        </mxCell>
        <mxCell id="DztWzcjORbF4qtPKrbao-32" value="" style="endArrow=classic;html=1;exitX=0.25;exitY=1;exitDx=0;exitDy=0;entryX=0.75;entryY=0;entryDx=0;entryDy=0;" parent="WIyWlLk6GJQsqaUBKTNV-1" source="DztWzcjORbF4qtPKrbao-5" target="DztWzcjORbF4qtPKrbao-4" edge="1">
          <mxGeometry width="50" height="50" relative="1" as="geometry">
            <mxPoint x="720" y="190" as="sourcePoint"/>
            <mxPoint x="666.96" y="230" as="targetPoint"/>
            <Array as="points">
              <mxPoint x="160" y="120"/>
              <mxPoint x="160" y="140"/>
              <mxPoint x="10" y="140"/>
            </Array>
          </mxGeometry>
        </mxCell>
        <mxCell id="4fUtrhHFBak9uhReiTAU-0" value="" style="endArrow=classic;html=1;exitX=1;exitY=0.5;exitDx=0;exitDy=0;entryX=0.25;entryY=0;entryDx=0;entryDy=0;" edge="1" parent="WIyWlLk6GJQsqaUBKTNV-1" source="DztWzcjORbF4qtPKrbao-6" target="DztWzcjORbF4qtPKrbao-2">
          <mxGeometry width="50" height="50" relative="1" as="geometry">
            <mxPoint x="450" y="60" as="sourcePoint"/>
            <mxPoint x="480" y="200" as="targetPoint"/>
            <Array as="points">
              <mxPoint x="480" y="50"/>
              <mxPoint x="480" y="120"/>
              <mxPoint x="520" y="120"/>
              <mxPoint x="540" y="110"/>
              <mxPoint x="560" y="120"/>
              <mxPoint x="600" y="120"/>
              <mxPoint x="600" y="270"/>
              <mxPoint x="660" y="270"/>
            </Array>
          </mxGeometry>
        </mxCell>
      </root>
    </mxGraphModel>
  </diagram>
</mxfile>
